<?xml version="1.0" standalone="no"?>
<!DOCTYPE svg PUBLIC "-//W3C//DTD SVG 1.1//EN" "http://www.w3.org/Graphics/SVG/1.1/DTD/svg11.dtd" >
<svg xmlns="http://www.w3.org/2000/svg">
<metadata>Generated by IcoMoon</metadata>
<defs>
<font id="icomoon" horiz-adv-x="1024">
<font-face units-per-em="1024" ascent="960" descent="-64" />
<missing-glyph horiz-adv-x="1024" />
<glyph unicode="&#x20;" horiz-adv-x="512" d="" />
<glyph unicode="&#xe900;" glyph-name="keyboard_arrow_right" d="M366 230.667l196 196-196 196 60 60 256-256-256-256z" />
<glyph unicode="&#xe901;" glyph-name="keyboard_arrow_left" d="M658 230.667l-60-60-256 256 256 256 60-60-196-196z" />
<glyph unicode="&#xe902;" glyph-name="ig" d="M514.338 936.621c-201.059 0-388.091 18.703-462.904-168.329-28.055-74.813-23.379-177.68-23.379-317.954 0-126.247-4.676-243.142 23.379-317.954 70.137-187.032 261.845-168.329 462.904-168.329 191.708 0 388.091-18.703 462.904 168.329 28.055 79.489 23.379 177.68 23.379 317.954 0 191.708 9.352 313.279-84.164 406.795-88.84 93.516-215.087 79.489-402.119 79.489v0zM472.256 852.457c416.146 0 467.58 46.758 439.525-598.502-9.352-229.114-182.356-201.059-397.443-201.059-388.091 0-397.443 9.352-397.443 402.119-4.676 388.091 28.055 397.443 355.361 397.443v0zM776.183 768.292c-32.731 0-60.785-28.055-60.785-60.785s28.055-60.785 60.785-60.785c32.731 0 60.785 28.055 60.785 60.785s-32.731 60.785-60.785 60.785zM514.338 702.831c-140.274 0-252.493-112.219-252.493-252.493s112.219-247.817 252.493-247.817 252.493 112.219 252.493 252.493-116.895 247.817-252.493 247.817v0zM514.338 613.991c215.087 0 215.087-327.306 0-327.306s-215.087 327.306 0 327.306z" />
<glyph unicode="&#xe903;" glyph-name="close" d="M1024 882.087l-77.913 77.913-434.087-434.087-434.087 434.087-77.913-77.913 434.087-434.087-434.087-434.087 77.913-77.913 434.087 434.087 434.087-434.087 77.913 77.913-434.087 434.087z" />
<glyph unicode="&#xe904;" glyph-name="twitter" horiz-adv-x="1260" d="M1260.014 838.776c-43.238-19.696-93.396-34.018-145.997-40.425l-2.483-0.246c53.471 32.367 93.67 82.071 113.173 141.185l0.523 1.832c-47.177-28.504-102.083-50.256-160.574-62.142l-3.325-0.564c-47.307 50.261-114.272 81.561-188.547 81.561-142.885 0-258.716-115.831-258.716-258.716 0-20.811 2.457-41.048 7.097-60.437l-0.356 1.762c-215.37 11.088-404.814 113.435-531.811 268.815l-1.041 1.314c-22.010-37.258-35.014-82.102-35.014-129.984 0-89.33 45.263-168.087 114.105-214.591l0.916-0.583c-43.195 1.364-83.345 13.194-118.373 33.020l1.277-0.665c0-1.093 0-2.185 0-3.278 0.042-124.662 88.267-228.706 205.684-253.143l1.678-0.292c-20.417-5.773-43.865-9.092-68.089-9.092-17.204 0-34.018 1.674-50.286 4.869l1.643-0.269c34.029-103.5 128.851-177.311 241.222-179.495l0.255-0.004c-87.653-68.964-199.627-110.608-321.326-110.608-21.533 0-42.761 1.304-63.611 3.836l2.508-0.248c112.153-72.86 249.334-116.184 396.634-116.184 405.992 0 735.114 329.122 735.114 735.114 0 0.085 0 0.17 0 0.254v-0.013c0 11.23 0 22.339-0.728 33.447 50.8 36.91 93.602 81.161 127.816 131.701l1.178 1.846z" />
<glyph unicode="&#xe905;" glyph-name="cart" horiz-adv-x="1009" d="M981.646 751.879c-21.2 25.092-52.682 40.923-87.862 40.938h-714.244c-2.722 8.384-5.444 17.421-8.057 24.933-28.091 88.681-45.021 142.249-140.181 142.249-17.318 0-31.357-14.039-31.357-31.357s14.039-31.357 31.357-31.357v0c46.491 0 50.955-5.444 80.407-98.426 4.518-14.317 9.472-29.996 14.59-44.967l125.21-500.84c8.928-41.646 32.99-66.525 64.456-66.525h593.386c0.39-0.017 0.847-0.027 1.306-0.027 17.318 0 31.357 14.039 31.357 31.357s-14.039 31.357-31.357 31.357c-0.459 0-0.917-0.010-1.371-0.029l0.065 0.002h-590.338c-3.067 5.208-5.346 11.28-6.485 17.747l-0.048 0.327-11.16 44.64h573.026c0.005 0 0.011 0 0.017 0 35.367 0 64.851 25.187 71.494 58.602l0.077 0.464 61.298 287.547c1.045 5.805 1.642 12.486 1.642 19.307 0 28.324-10.301 54.243-27.36 74.214l0.132-0.158zM945.444 670.602l-61.19-287.058c-0.811-4.938-5.026-8.665-10.121-8.71h-588.492l-88.845 355.27h697.202c15.998-0.019 30.311-7.215 39.895-18.541l0.063-0.077c7.626-8.904 12.267-20.561 12.267-33.302 0-2.675-0.205-5.303-0.599-7.868l0.036 0.286zM365.668 165.896c-63.446-0.031-114.867-51.471-114.867-114.921 0-63.469 51.452-114.921 114.921-114.921 63.45 0 114.89 51.421 114.921 114.863v0.003c-0.062 63.474-51.501 114.913-114.969 114.975h-0.006zM365.668-1.286c-28.863 0-52.262 23.398-52.262 52.262s23.398 52.262 52.262 52.262c28.863 0 52.262-23.398 52.262-52.262 0-0.019 0-0.038 0-0.057v0.003c-0.031-28.84-23.417-52.207-52.262-52.207v0zM825.461 165.896c-63.469 0-114.921-51.452-114.921-114.921s51.452-114.921 114.921-114.921c63.45 0 114.89 51.421 114.921 114.864v0.003c-0.062 63.455-51.47 114.883-114.912 114.975h-0.009zM825.461-1.286c-0.016 0-0.035 0-0.054 0-28.863 0-52.262 23.398-52.262 52.262s23.398 52.262 52.262 52.262c28.863 0 52.262-23.398 52.262-52.262 0-0.019 0-0.038 0-0.057v0.003c-0.031-28.821-23.386-52.176-52.204-52.207h-0.003z" />
<glyph unicode="&#xe906;" glyph-name="linkdin" horiz-adv-x="1072" d="M1071.6 332.233v-396.233h-229.741v369.499c0 92.809-33.146 156.222-116.338 156.222-54.191-0.318-100.226-34.882-117.584-83.13l-0.275-0.876c-4.927-14.577-7.77-31.366-7.77-48.819 0-2.514 0.059-5.015 0.176-7.5l-0.013 0.351v-385.8h-229.741s3.097 626.137 0 690.962h229.741v-97.808c-0.489-0.761-1.141-1.521-1.521-2.282h1.521v2.228c40.169 68.804 113.648 114.298 197.753 114.298 3.262 0 6.508-0.068 9.737-0.204l-0.462 0.015c151.168 0 264.463-98.732 264.463-310.922zM129.977 960c-2.259 0.152-4.896 0.239-7.553 0.239-66.022 0-119.544-53.522-119.544-119.544s53.522-119.544 119.544-119.544c1.605 0 3.203 0.032 4.793 0.094l-0.229-0.007h1.467c2.079-0.129 4.508-0.202 6.955-0.202 66.022 0 119.544 53.522 119.544 119.544s-53.522 119.544-119.544 119.544c-1.911 0-3.812-0.045-5.701-0.134l0.267 0.010zM13.639-64h229.687v690.854h-229.687z" />
<glyph unicode="&#xe907;" glyph-name="search" d="M996.749 95.752l-176.45 176.45c-17.183 16.324-40.472 26.364-66.105 26.364-14.427 0-28.112-3.181-40.391-8.879l0.593 0.247-1.088 1.088c60.882 70.703 97.957 163.416 97.957 264.789 0 224.702-182.157 406.859-406.859 406.859s-406.859-182.157-406.859-406.859c0-224.702 182.157-406.859 406.859-406.859 101.373 0 194.087 37.075 265.322 98.405l-0.533-0.448 0.816-0.816c-5.783-11.815-9.165-25.711-9.165-40.396 0-25.699 10.355-48.978 27.121-65.894l176.443-176.443c16.816-16.256 39.752-26.273 65.028-26.273 51.699 0 93.61 41.911 93.61 93.61 0 25.289-10.028 48.236-26.325 65.081l0.025-0.026zM62.389 554.501c0 0.046 0 0.101 0 0.155 0 189.495 153.616 343.11 343.11 343.11s343.11-153.616 343.11-343.11c0-94.705-38.369-180.448-100.411-242.532l0.002 0.002c-62.065-62.084-147.817-100.485-242.538-100.485-189.404 0-342.947 153.543-342.947 342.947 0 0.084 0 0.168 0 0.252v-0.013zM952.473 7.472c-5.727-5.461-13.499-8.822-22.056-8.822s-16.329 3.361-22.069 8.834l0.013-0.012-176.45 176.396c-5.56 5.643-8.994 13.394-8.994 21.948s3.434 16.305 8.998 21.951l-0.004-0.004h0.272c5.711 5.384 13.429 8.693 21.92 8.693s16.21-3.309 21.936-8.708l-0.016 0.015 176.45-176.45c5.532-5.645 8.945-13.384 8.945-21.92s-3.414-16.275-8.95-21.926l0.005 0.005z" />
<glyph unicode="&#xe908;" glyph-name="user" horiz-adv-x="997" d="M676.456 469.258c-22.852-0.338-42.951-11.823-55.142-29.248l-0.146-0.221c-27.598-38.483-72.193-63.258-122.575-63.258s-94.977 24.775-122.267 62.808l-0.307 0.451c-12.337 17.646-32.437 29.131-55.237 29.468l-0.052 0.001c-176.888-0.157-320.24-143.51-320.397-320.383v-130.275c0.187-45.524 37.026-82.382 82.525-82.601h831.838c45.52 0.219 82.358 37.077 82.546 82.583v130.278c-0.157 176.984-143.668 320.397-320.674 320.397-0.039 0-0.078 0-0.117 0h0.006zM927.356 18.601c0 0 0 0 0 0 0-7.187-5.81-13.017-12.99-13.048h-831.82c-7.182 0.031-12.993 5.861-12.993 13.048 0 0 0 0 0 0v0 130.26c0.189 138.5 112.446 250.719 250.943 250.844h-1.37c40.385-56.314 105.632-92.577 179.351-92.608h0.005c0.255-0.001 0.558-0.002 0.861-0.002 73.106 0 137.715 36.382 176.709 92.028l0.46 0.693c138.474-0.157 250.687-112.37 250.844-250.829v-0.015zM494.059 473.129c134.354 0 243.27 108.916 243.27 243.27s-108.916 243.27-243.27 243.27c-134.354 0-243.27-108.916-243.27-243.27v0c0.251-134.253 109.017-243.019 243.246-243.27h0.024zM494.059 890.447c0.016 0 0.036 0 0.055 0 96.033 0 173.883-77.85 173.883-173.883s-77.85-173.883-173.883-173.883c-96.033 0-173.883 77.85-173.883 173.883v0c0.094 95.975 77.857 173.757 173.816 173.883h0.012z" />
<glyph unicode="&#xe909;" glyph-name="facebook" horiz-adv-x="472" d="M453.064 448.984h-140.006v-512.984h-212.178v512.984h-100.88v180.296h100.88v116.664c0 83.44 39.619 214.056 214.056 214.056l157.133-0.671v-175.019h-113.981c-0.661 0.036-1.435 0.057-2.214 0.057-23.856 0-43.196-19.339-43.196-43.196 0-2.134 0.155-4.231 0.454-6.282l-0.028 0.233v-106.111h158.563z" />
<glyph unicode="&#xe90a;" glyph-name="aarrow-long-left" horiz-adv-x="2101" d="M0 448l512-512 53.493 53.493-420.299 420.299h1956.299v76.418h-1956.299l420.299 420.299-53.493 53.493z" />
<glyph unicode="&#xe90b;" glyph-name="aarrow-long" horiz-adv-x="2101" d="M1589.493 960l-53.493-53.493 420.299-420.299h-1956.299v-76.418h1956.299l-420.299-420.299 53.493-53.493 512 512z" />
<glyph unicode="&#xe90c;" glyph-name="delete" d="M867.242 834.577h-139.086c-15.145 72.029-78.119 125.343-153.559 125.423h-167.076c-75.471-0.072-138.469-53.383-153.468-124.398l-0.181-1.025h-97.115c-86.509-0.093-156.618-70.174-156.758-156.663v-0.013c0-17.306 14.029-31.335 31.335-31.335s31.335 14.029 31.335 31.335v0c0.093 51.881 42.125 93.913 93.997 94.006h710.493c51.881-0.093 93.913-42.125 94.006-93.997v-0.009c0-17.306 14.029-31.335 31.335-31.335s31.335 14.029 31.335 31.335v0c-0.139 86.445-70.156 156.49-156.577 156.676h-0.018zM319.080 834.577c13.342 36.813 47.995 62.645 88.685 62.671h167.152c40.66-0.062 75.273-25.883 88.398-62.015l0.208-0.655zM867.242 751.044c-17.306 0-31.335-14.029-31.335-31.335v0-720.956h-647.813v720.956c0 17.306-14.029 31.335-31.335 31.335s-31.335-14.029-31.335-31.335v0-752.701c0-17.306 14.029-31.335 31.335-31.335h710.484c17.306 0 31.335 14.029 31.335 31.335v0 752.701c0 17.306-14.029 31.335-31.335 31.335v0zM437.057 92.758v501.528c0 17.306-14.029 31.335-31.335 31.335s-31.335-14.029-31.335-31.335v0-501.528c0-17.306 14.029-31.335 31.335-31.335s31.335 14.029 31.335 31.335v0zM646.013 92.758v501.528c0 17.306-14.029 31.335-31.335 31.335s-31.335-14.029-31.335-31.335v-501.528c0-17.306 14.029-31.335 31.335-31.335s31.335 14.029 31.335 31.335v0z" />
<glyph unicode="&#xe90d;" glyph-name="arrow-updown" horiz-adv-x="690" d="M225.135 451.631v-406.695l130.723 123.461 43.574-36.312-203.348-196.085-196.085 196.085 43.574 36.312 130.723-123.461v406.695zM457.532 444.369v406.695l-123.461-123.461-43.574 36.312 203.348 196.085 196.085-196.085-43.574-36.312-130.723 123.461v-406.695z" />
<glyph unicode="&#xe90e;" glyph-name="icon-corner-quart" d="M503.467 934.4c-21.333-17.067-34.133-76.8-34.133-132.267 0-145.067-183.467-311.467-341.333-311.467-68.267 0-128-17.067-128-42.667 0-21.333 51.2-42.667 110.933-42.667s149.333-21.333 200.533-46.933c85.333-38.4 89.6-38.4 17.067 17.067-72.533 59.733-68.267 68.267 55.467 192l128 128 247.467-247.467-128-132.267c-102.4-102.4-140.8-119.467-170.667-72.533-29.867 38.4-34.133 34.133-17.067-21.333 12.8-42.667 25.6-128 25.6-183.467s21.333-102.4 42.667-102.4c25.6 0 42.667 59.733 42.667 128 0 81.067 38.4 170.667 106.667 234.667 64 68.267 153.6 106.667 234.667 106.667 68.267 0 128 21.333 128 42.667 0 25.6-55.467 42.667-123.733 42.667-174.933 0-307.2 123.733-341.333 315.733-12.8 89.6-38.4 145.067-55.467 128z" />
<glyph unicode="&#xe90f;" glyph-name="icon-1" horiz-adv-x="733" d="M418.597-62.8c0 0-4.285 0-4.285 0-12.854 4.285-17.138 12.854-17.138 25.707l8.569 29.992c21.423 85.69 51.414 205.657 0 291.347-29.992 51.414-85.69 85.69-171.381 102.828-94.259 21.423-162.812 68.552-197.088 132.82-59.983 111.397-12.854 235.649-12.854 244.218 4.285 12.854 17.138 17.138 25.707 12.854 12.854-4.285 17.138-17.138 12.854-25.707 0 0-38.561-115.682 8.569-209.941 29.992-55.699 85.69-94.259 171.381-111.397 94.259-21.423 162.812-64.268 197.088-124.251 59.983-98.544 29.992-227.079 8.569-325.623l-8.569-29.992c-4.285-4.285-12.854-12.854-21.423-12.854zM675.669 108.58c0 0-4.285 0-4.285 0-12.854 4.285-17.138 12.854-17.138 25.707l8.569 29.992c21.423 85.69 51.414 205.657 0 291.347-29.992 51.414-85.69 85.69-171.381 102.828-94.259 21.423-162.812 68.552-197.088 132.82-59.983 111.397-12.854 235.649-12.854 244.218 4.285 12.854 17.138 17.138 25.707 12.854 12.854-4.285 17.138-17.138 12.854-25.707 0 0-38.561-115.682 8.569-209.941 29.992-55.699 85.69-94.259 171.381-111.397 94.259-21.423 162.812-64.268 197.088-124.251 59.983-98.544 29.992-227.079 8.569-325.623l-8.569-29.992c-4.285-4.285-12.854-12.854-21.423-12.854z" />
<glyph unicode="&#xe910;" glyph-name="favorite" horiz-adv-x="1071" d="M534.631-63.439l-32.731 60.785c-18.703 37.406-84.164 93.516-149.626 154.301-149.626 130.922-350.685 303.927-350.685 514.338 0 116.895 70.137 224.438 177.68 271.196 70.137 32.731 154.301 32.731 224.438 4.676 51.434-18.703 98.192-56.11 130.922-102.868 56.11 74.813 144.95 121.571 238.466 121.571 0 0 0 0 0 0 163.653 0 294.575-130.922 294.575-294.575v0c-4.676-210.411-205.735-383.416-350.685-514.338-65.461-60.785-130.922-116.895-149.626-154.301l-32.731-60.785zM296.165 890.424c-32.731 0-60.785-4.676-88.84-18.703-84.164-37.406-135.598-116.895-135.598-205.735 0-177.68 182.356-336.658 327.306-462.904 56.11-46.758 102.868-88.84 135.598-130.922 32.731 37.406 79.489 79.489 135.598 130.922 144.95 126.247 322.63 285.224 327.306 462.904v0c0 126.247-102.868 224.438-224.438 224.438 0 0 0 0 0 0-88.84 0-173.005-51.434-205.735-135.598l-32.731-74.813-32.731 74.813c-23.379 56.11-70.137 98.192-126.247 121.571-23.379 9.352-51.434 14.027-79.489 14.027z" />
<glyph unicode="&#xe911;" glyph-name="icon" horiz-adv-x="1068" d="M425.063 763.954h610.023c18.051 0 32.684 14.633 32.684 32.684s-14.633 32.684-32.684 32.684v0h-610.023c-18.051 0-32.684-14.633-32.684-32.684s14.633-32.684 32.684-32.684v0zM32.684 763.954h141.649v-32.684c0-54.137 43.886-98.023 98.023-98.023s98.023 43.886 98.023 98.023v0 130.736c0 54.137-43.886 98.023-98.023 98.023s-98.023-43.886-98.023-98.023v0-32.684h-141.649c-18.051 0-32.684-14.633-32.684-32.684s14.633-32.684 32.684-32.684v0zM239.471 862.006c0 18.051 14.633 32.684 32.684 32.684s32.684-14.633 32.684-32.684v0-130.736c0-18.051-14.633-32.684-32.684-32.684s-32.684 14.633-32.684 32.684v0zM1034.914 480.713h-130.678c-18.051 0-32.684-14.633-32.684-32.684s14.633-32.684 32.684-32.684v0h130.678c18.051 0 32.684 14.633 32.684 32.684s-14.633 32.684-32.684 32.684v0zM32.684 415.345h620.937v-32.684c0-54.152 43.899-98.052 98.052-98.052s98.052 43.899 98.052 98.052v0 130.736c0 54.152-43.899 98.052-98.052 98.052s-98.052-43.899-98.052-98.052v0-32.684h-620.937c-18.051 0-32.684-14.633-32.684-32.684s14.633-32.684 32.684-32.684v0zM718.989 513.397c0 18.051 14.633 32.684 32.684 32.684s32.684-14.633 32.684-32.684v0-130.736c0-18.051-14.633-32.684-32.684-32.684s-32.684 14.633-32.684 32.684v0zM1034.914 132.046h-740.988c-18.035 0-32.655-14.62-32.655-32.655s14.62-32.655 32.655-32.655h740.988c18.035 0 32.655 14.62 32.655 32.655s-14.62 32.655-32.655 32.655v0zM141.649 262.782c-54.119-0.033-97.986-43.88-98.052-97.988v-32.747h-10.914c-18.035 0-32.655-14.62-32.655-32.655s14.62-32.655 32.655-32.655h10.914v-32.684c0-54.137 43.886-98.023 98.023-98.023s98.023 43.886 98.023 98.023v0 130.736c-0.065 54.095-43.9 97.929-97.988 97.994h-0.006zM174.333 34.052c0-18.051-14.633-32.684-32.684-32.684s-32.684 14.633-32.684 32.684v0 130.736c0 18.051 14.633 32.684 32.684 32.684s32.684-14.633 32.684-32.684v0z" />
<glyph unicode="&#xe912;" glyph-name="icon1" horiz-adv-x="514" d="M222.467-65.187c-48.343 0-96.687 13.185-136.24 43.948-43.948 30.764-109.871 109.871-83.502 276.876 48.343 298.85 421.906 689.991 474.644 698.781l13.185 4.395 13.185-13.185c8.79-13.185 8.79-30.764-70.318-127.451v0c-167.004-202.163-109.871-325.219-57.133-452.67 30.764-70.318 65.923-145.030 61.528-237.322-4.395-79.107-48.343-140.635-118.661-175.794-26.369-8.79-61.528-17.579-96.687-17.579zM363.102 791.809c-118.661-136.24-281.27-355.983-312.034-540.567-17.579-105.476 4.395-188.979 65.923-237.322 52.738-39.554 127.451-48.343 188.979-17.579 57.133 26.369 92.292 74.712 96.687 136.24 4.395 79.107-26.369 145.030-57.133 215.348-57.133 127.451-109.871 254.901 17.579 443.88z" />
<glyph unicode="&#xe913;" glyph-name="icon-11" horiz-adv-x="1287" d="M1194.646 960h-1102.769c-50.713-0.072-91.805-41.163-91.876-91.869v-630.161c0.072-50.713 41.163-91.805 91.869-91.876h828.155l305.12-203.477c6.073-3.953 13.504-6.303 21.484-6.303 0.135 0 0.269 0.001 0.403 0.002h-0.021c0.019 0 0.041 0 0.063 0 21.717 0 39.322 17.605 39.322 39.322 0 0.022 0 0.044 0 0.067v-0.003 892.424c-0.071 50.669-41.092 91.733-91.737 91.876h-0.014zM1207.753 48.987l-253.826 169.196c-6.116 4.175-13.667 6.67-21.801 6.68h-840.25c-7.239 0-13.107 5.868-13.107 13.107v0 630.154c0.036 7.225 5.883 13.072 13.104 13.107h1102.772c7.225-0.036 13.072-5.883 13.107-13.104v-0.003zM984.552 697.415h-735.137c-21.752 0-39.385-17.633-39.385-39.385s17.633-39.385 39.385-39.385v0h735.201c21.752 0 39.385 17.633 39.385 39.385s-17.633 39.385-39.385 39.385v0zM984.552 487.385h-735.137c-21.752 0-39.385-17.633-39.385-39.385s17.633-39.385 39.385-39.385v0h735.201c21.752 0 39.385 17.633 39.385 39.385s-17.633 39.385-39.385 39.385v0z" />
<glyph unicode="&#xe914;" glyph-name="keyboard_arrow_up" d="M316 280.667l-60 60 256 256 256-256-60-60-196 196z" />
<glyph unicode="&#xe915;" glyph-name="keyboard_arrow_down" d="M316 572.667l196-196 196 196 60-60-256-256-256 256z" />
<glyph unicode="&#xe916;" glyph-name="Caminho-335" horiz-adv-x="804" d="M747.986 901.398l-0.96 0.96c-35.709 35.584-84.974 57.585-139.378 57.585s-103.669-22.001-139.384-57.591l-245.439-245.439c-35.663-35.629-57.723-84.869-57.723-139.26 0-39.633 11.713-76.531 31.866-107.421l-0.463 0.756-138.452-138.521c-35.648-35.668-57.695-84.933-57.695-139.346 0-54.003 21.716-102.935 56.892-138.538l-0.019 0.020 0.891-0.96c35.701-35.601 84.969-57.613 139.378-57.613s103.676 22.013 139.382 57.618l245.441 245.441c35.606 35.713 57.621 84.992 57.621 139.413 0 39.583-11.646 76.445-31.7 107.348l0.467-0.768 138.384 138.384c35.591 35.721 57.596 84.999 57.596 139.417 0 53.973-21.646 102.889-56.73 138.543l0.026-0.026zM524.132 297.347l-245.445-245.445c-20.807-20.717-49.504-33.525-81.192-33.525-31.311 0-59.701 12.504-80.449 32.791l0.021-0.021-0.754 0.822c-20.759 20.773-33.598 49.463-33.598 81.152s12.839 60.379 33.599 81.153l138.109 138.178c30.41-20.084 67.723-32.040 107.829-32.040 54.414 0 103.687 22.009 139.403 57.611l46.26 46.26c6.017-13.481 9.522-29.213 9.522-45.764 0-31.705-12.859-60.406-33.647-81.173l-0.001-0.001zM315.151 413.25l46.539 46.471c20.711 20.577 49.252 33.295 80.763 33.295 17.185 0 33.486-3.782 48.116-10.56l-0.709 0.294-46.471-46.471c-20.74-20.626-49.331-33.375-80.901-33.375-17.263 0-33.635 3.812-48.321 10.641l0.707-0.295zM688.767 681.724l-138.11-138.178c-30.42 20.077-67.74 32.029-107.852 32.029-54.392 0-103.651-21.976-139.383-57.534l0.008 0.008-46.334-46.402c-6.12 13.569-9.686 29.416-9.686 46.096 0 31.623 12.816 60.253 33.538 80.979l245.445 245.513c20.796 20.655 49.451 33.421 81.088 33.421 31.362 0 59.794-12.545 80.551-32.891l0.735-0.735c20.661-20.767 33.433-49.399 33.433-81.015 0-31.752-12.882-60.495-33.706-81.288l-0.001-0.001z" />
<glyph unicode="&#xe917;" glyph-name="Caminho-295" horiz-adv-x="1375" d="M1375.033 916.798c-0.038 5.115-0.932 10.010-2.546 14.564l0.096-0.312c-0.243 0.342-0.466 0.732-0.65 1.144l-0.018 0.044c-0.52 1.336-1.41 2.45-2.078 3.786-1.819 3.534-3.917 6.581-6.35 9.325l0.040-0.046c-1.152 1.24-2.364 2.381-3.647 3.438l-0.064 0.051c-2.566 2.255-5.468 4.232-8.595 5.828l-0.238 0.11c-1.222 0.733-2.662 1.455-4.157 2.071l-0.222 0.081c-4.563 1.894-9.857 3.032-15.406 3.117h-1287.327c-5.584-0.093-10.877-1.23-15.728-3.222l0.288 0.105c-1.718-0.699-3.158-1.421-4.535-2.238l0.155 0.085c-3.362-1.727-6.262-3.702-8.887-5.984l0.054 0.046c-1.348-1.108-2.559-2.249-3.69-3.466l-0.021-0.023c-2.391-2.689-4.469-5.739-6.125-9.037l-0.11-0.242c-0.702-1.056-1.418-2.295-2.059-3.579l-0.094-0.207c-0.202-0.455-0.426-0.845-0.683-1.21l0.015 0.022c-1.518-4.242-2.412-9.137-2.449-14.235v-819.885c0.085-88.845 72.085-160.846 160.922-160.93h1053.329c88.845 0.085 160.846 72.085 160.93 160.922v819.208zM1209.574 872.26l-478.931-397.204c-11.881-8.883-26.861-14.224-43.088-14.224-15.236 0-29.373 4.708-41.035 12.749l0.243-0.158-481.157 398.837zM1214.251 23.814h-1053.321c-40.364 0.042-73.074 32.752-73.116 73.112v725.823l505.134-418.656c25.956-19.175 58.579-30.701 93.893-30.731h0.007c36.753 0.159 70.636 12.314 97.97 32.748l-0.432-0.309 502.981 416.949v-725.819c0-40.396-32.726-73.148-73.112-73.191h-0.004z" />
</font>
</defs>
</svg>
