<svg xmlns="http://www.w3.org/2000/svg" width="376.909" height="301.491"><g data-name="Group 449"><path data-name="Path 162" d="M34.572 280.004h115.566a31.552 31.552 0 0 0 1.012-63.087 41.154 41.154 0 0 0-52.422-15.111 41.236 41.236 0 0 0-80.078 19.416 31.54 31.54 0 0 0 15.927 58.782z" fill="#fff" stroke="#e4f2ff" stroke-linecap="round" stroke-linejoin="round" stroke-width="6"/><g fill="#e4f2ff" fill-rule="evenodd"><path data-name="Path 150" d="M179.757 113.676v14.909a3.442 3.442 0 0 1-3.433 3.433h-11.39a3.442 3.442 0 0 1-3.433-3.433v-14.909h2.623v5.405h13.013v-5.405h2.623z"/><path data-name="Path 151" d="M136.788 73.391c2.7 14.5 13.9 26.068 23.6 38.358h20.474c9.7-12.29 20.905-23.861 23.6-38.358 10.526-56.576-78.2-56.576-67.678 0z"/></g><g data-name="hot-air-balloon" fill="#e4f2ff" fill-rule="evenodd"><path data-name="Path 150" d="M232.835 293.779v6.27a1.447 1.447 0 0 1-1.443 1.443h-4.79a1.447 1.447 0 0 1-1.443-1.443v-6.27h1.1v2.27h5.471v-2.27h1.1z"/><path data-name="Path 151" d="M214.768 276.84c1.135 6.1 5.845 10.96 9.923 16.128h8.609c4.079-5.168 8.79-10.033 9.924-16.128 4.426-23.787-32.882-23.787-28.456 0z"/></g><g data-name="hot-air-balloon" fill="#e4f2ff" fill-rule="evenodd"><path data-name="Path 150" d="M232.835 34.779v6.27a1.447 1.447 0 0 1-1.443 1.443h-4.79a1.447 1.447 0 0 1-1.443-1.443v-6.27h1.1v2.27h5.471v-2.27h1.1z"/><path data-name="Path 151" d="M214.768 17.84c1.135 6.1 5.845 10.96 9.923 16.128h8.609c4.079-5.168 8.79-10.033 9.924-16.128 4.426-23.787-32.882-23.787-28.456 0z"/></g><g data-name="cloud-bubble-2"><path data-name="Path 162" d="M90.42 78.165h55.2a15.07 15.07 0 0 0 .484-30.131 19.656 19.656 0 0 0-25.038-7.217 19.7 19.7 0 0 0-38.253 9.273 15.064 15.064 0 0 0 7.607 28.075z" fill="#fff" stroke="#e4f2ff" stroke-linecap="round" stroke-linejoin="round" stroke-width="6"/></g><g data-name="cloud-bubble-2"><path data-name="Path 162" d="M271.107 185.073h80.759a22.049 22.049 0 0 0 .708-44.086 28.759 28.759 0 0 0-36.634-10.56 28.817 28.817 0 0 0-55.963 13.568 22.041 22.041 0 0 0 11.13 41.078z" fill="#fff" stroke="#e4f2ff" stroke-linecap="round" stroke-linejoin="round" stroke-width="6"/></g></g></svg>