<svg xmlns="http://www.w3.org/2000/svg" viewBox="0 0 264.99 213.72"><defs><style>.cls-1,.cls-26{fill:none}.cls-2{fill:#b3dcef}.cls-3{fill:#8772d2}.cls-4{fill:#ffdf51}.cls-5{fill:#8c77cd}.cls-6{fill:#daebcd}.cls-7{fill:#668051}.cls-8{fill:#f2f8ee}.cls-9{fill:#ffce80}.cls-10{fill:#ffb30f}.cls-11{fill:#cce4ba}.cls-12{fill:#242b1d}.cls-13{fill:#fff}.cls-14{fill:#444f45}.cls-15{clip-path:url(#clip-path)}.cls-16{fill:#ffc56a}.cls-17{fill:#7c9b62}.cls-18{fill:#f7fafb}.cls-19{fill:#9fc083}.cls-20{fill:#93b874}.cls-21{fill:#fce6ce}.cls-22{fill:#a4d3e2}.cls-23{fill:#b5acdb}.cls-24{fill:#92cde8}.cls-25{fill:#72bbd2}.cls-26{stroke:#668051;stroke-linecap:round;stroke-linejoin:round;stroke-width:1.05px}.cls-27{fill:#a1c784}.cls-28{fill:#b8d6a1}.cls-29{fill:#8fb574}.cls-30{fill:#9c88dc}</style><clipPath id="clip-path"><rect class="cls-1" x="101.56" y="98.75" width="163.44" height="113.67" rx="12"/></clipPath></defs><path class="cls-2" d="M64.26 0h4.86a51.35 51.35 0 0 1 51.35 51.35v104.94H12.9V51.35A51.35 51.35 0 0 1 64.26 0z"/><path class="cls-3" d="M80.81 72.11s18.31-1.11 28.05 9.18 15 38.17 14.41 48.85l-.55 10.68-27.38 2.24z"/><path class="cls-4" d="M42.18 156.29l11.12-34.92 48.25-1.96 4.46 37.61-63.83-.73z"/><path class="cls-5" d="M91.43 82.41s9.38 10.65 14.2 16 2.69 12.81.93 18.41-5.66 17.86-3.73 21c0 0-12.39 2.81-17 2.81-6.06 0-25.8-2.81-25.8-2.81L51.16 98.5 74 78.4s13.14 18.22 17.43 4.01z"/><rect class="cls-6" x="101.56" y="98.75" width="163.44" height="113.67" rx="12"/><path class="cls-7" d="M265 110.75v3.08H101.55v-3.08a12 12 0 0 1 12-12H253a12 12 0 0 1 12 12z"/><ellipse class="cls-8" cx="111.27" cy="107.75" rx="2.6" ry="2.55"/><circle class="cls-8" cx="124.77" cy="107.79" r="2.6"/><circle class="cls-8" cx="138.27" cy="107.79" r="2.6"/><path class="cls-9" d="M79.79 85.06v-.12C80.13 75.8 85.15 68.53 91 68.6c.14-2.08.29-3.71.29-3.71l-18-5.49s.44 14.41-3 17.45a69.45 69.45 0 0 0 9.5 8.21z"/><path class="cls-10" d="M79.79 84.94v.12c6.3 4.33 13.08 6.18 11.06-8.18A53 53 0 0 1 91 68.6c-5.85-.07-10.87 7.2-11.21 16.34z"/><path class="cls-11" d="M103 36.68a21.53 21.53 0 0 1 2.38 13.94 17.2 17.2 0 0 1-1.87 5.91c-2.74 4.66-6.64 18.41-14.17 15.13s-14.09-5-17.21-13.81.28-20.84.79-22.6c.92-3.35 20.97-14.61 30.08 1.43z"/><path class="cls-9" d="M103 36.68a21.53 21.53 0 0 1 2.38 13.94c-.32 2.06-4.4 25-16 21-7.8-2.62-14.09-5-17.21-13.81s.28-20.84.79-22.6c.88-3.31 20.93-14.57 30.04 1.47z"/><path class="cls-9" d="M100.4 28.65c-10.17-10.66-26.65-1-27.51 2.19-.51 1.83-3.91 14.22-.79 23.37s9.69 10.9 17.21 14.29A6 6 0 0 0 91 69s3.72-4.6 4.79-8.48.05-5.52 1.72-6.52 3-1.17 3-2-1.06-2.5-1.5-4.63.29-6.88 1-8.83 1.11-9.14.39-9.89z"/><ellipse class="cls-12" cx="101.71" cy="51.45" rx="1.13" ry="1.07"/><ellipse class="cls-12" cx="87.8" cy="49.02" rx="1.16" ry="1.1"/><path class="cls-13" d="M93 63.79s-4.85-.79-5.2-2.63-1.29 2 0 3 2.75 1.36 5.2-.37z"/><path class="cls-14" d="M97.13 25.56c-6.53-2.88-21.78-6.12-30 5.94-3.85 5.61-2.71 13.94-2.27 18.88 1 11.47 7.49 14.33 7.93 12.35 1.3-5.85-3.37-17.79-1.79-17.17s7.64-8.56 14-9.33c0 0 7.89 11.42 19.07 7.18 1.58-.61 2.34-.32 2.55-1 .74-2.35-.25-12.77-9.49-16.85z"/><path class="cls-9" d="M72.53 49s-.9-7.4-4.92-6 1.06 15.47 4.7 10.27.22-4.27.22-4.27z"/><path class="cls-14" d="M75.75 31s-6.09 2.34-5.15-.43 4-14.32 7-12.14S88.37 31.37 75.75 31z"/><g class="cls-15"><path class="cls-16" d="M154.2 203.08s1-9.47-1.36-15.61-11.71-8.29-11.71-8.29-1.75-4.74 4-2.64 9.88 4.34 13.19 3.48a9 9 0 0 1 10.7 6c1.72 5.61 1.36 15.61 1.36 15.61z"/><path class="cls-17" d="M183.29 242.13c-10.34-11.68-9.93-44.24-9.93-44.24l-21.48 1.88s.61 36.7 8 47.26 23.41-4.9 23.41-4.9z"/><path class="cls-18" d="M148 159.58l-1.55 7.63a1.11 1.11 0 0 1-.7.08l-30.5-6 1.92-9.46 30.22 7.42a1.16 1.16 0 0 1 .61.33z"/><path class="cls-19" d="M140.47 157.53l-24-5.88.31-1.41 28.59 7 7.15 1.75 33.31 8.18a2.22 2.22 0 0 1 1.44 1.73 7 7 0 0 1 0 3.36c-.53 2.48-2 4.29-3.32 4l-33.62-6.65-7.22-1.42-28.87-5.72.31-1.56 24.21 4.79c.72.14 1.52-.82 1.78-2.14l.25-1.25c.31-1.31.4-4.6-.32-4.78z"/><path class="cls-20" d="M140 161c-3.88-.89-7.73-1.87-11.58-2.85l-5.77-1.53q-2.88-.79-5.74-1.63l.06-.24q2.91.66 5.81 1.39l5.77 1.48c3.85 1 7.69 2 11.51 3.17zm-.65 2.93c-3.9-.74-7.77-1.59-11.64-2.43l-5.8-1.33c-1.93-.45-3.85-.93-5.77-1.42v-.24c2 .37 3.89.77 5.83 1.18l5.81 1.27c3.86.89 7.73 1.78 11.57 2.77z"/><path class="cls-13" d="M177.12 165.09l-1.98 9.76.72.14 1.98-9.73-.72-.17zm-9.38-2.62l-2.08 10.2-.71-.14 2.09-10.23.7.17z"/><path class="cls-21" d="M148 163.44l-.4 2a2.32 2.32 0 0 1-1.14 1.75l1.55-7.63c.4.44.15 3.04-.01 3.88z"/><path class="cls-18" d="M150.61 171.21l-1 5.25a1.1 1.1 0 0 1-.65.06l-28.3-5.6 1.11-5.63 28.31 5.6a1.08 1.08 0 0 1 .53.32z"/><path class="cls-22" d="M143.4 171.48c-3.64-.6-7.26-1.3-10.88-2s-7.22-1.44-10.81-2.28v-.22c3.64.59 7.26 1.3 10.87 2s7.22 1.47 10.82 2.3zm0 2.04c-3.64-.6-7.26-1.29-10.88-2s-7.22-1.44-10.81-2.28v-.22c3.64.59 7.26 1.3 10.87 2s7.22 1.47 10.82 2.3z"/><path class="cls-23" d="M151 173.06l-.36 1.82a2.12 2.12 0 0 1-1.05 1.58l1-5.25a2.07 2.07 0 0 1 .41 1.85z"/><path class="cls-24" d="M187.41 178.22a2 2 0 0 0-1.38-1.51l-12.43-2.46-52.25-10.34-.25 1.27 22.46 4.45c.67.13 1 1.21.78 2.41l-.22 1.12c-.23 1.19-1 2.06-1.64 1.93L120 170.65l-.28 1.41L172 182.4l12.43 2.45c1.26.25 2.64-1.37 3.09-3.62a6.11 6.11 0 0 0-.11-3.01z"/><path class="cls-25" d="M187.51 181.23v.05c-.05.24-.11.48-.18.71a5.71 5.71 0 0 1-1.13 2.08l-.19.19a3 3 0 0 1-.28.24 2.14 2.14 0 0 1-.46.26 1.4 1.4 0 0 1-.35.1 1.16 1.16 0 0 1-.49 0l-9.65-1.9 1.61-8.15 9.65 1.91a2 2 0 0 1 1.38 1.51 5.44 5.44 0 0 1 .24 1.73 7.26 7.26 0 0 1-.15 1.27z"/><path class="cls-18" d="M148 163.44l-.4 2a2.32 2.32 0 0 1-1.14 1.75l1.55-7.63c.4.44.15 3.04-.01 3.88z"/><path class="cls-9" d="M222.3 213.39l3.5-10.77c2.17-8.25 1.55-16.83-5.13-18.72.43-1.9.71-3.39.71-3.39l22 1.08s-3.05 14 0 17.82c0 0-4.75 11.21-9 12-2.22.48-9.84 1.51-12.08 1.98z"/><path class="cls-10" d="M228.82 202.17v.11c-1.09 5.95-4.55 10.5-6.49 11.11-7.65 2.43-12.67-1.64-2.22-16 2.68-3.69 0-10.84.59-13.46 6.65 1.86 10.3 9.99 8.12 18.24z"/><path class="cls-11" d="M221.52 142.88a27.84 27.84 0 0 0-9.12 15 22.07 22.07 0 0 0-.7 7.64c.82 6.58-1.31 24.14 8.46 23.71s17.76.54 25.31-8.27 9.41-24.11 9.69-26.37c.52-4.28-16.16-26.15-33.64-11.71z"/><path class="cls-9" d="M221.52 142.88a27.84 27.84 0 0 0-9.12 15 22.07 22.07 0 0 0-.7 7.64c.82 6.58-1.31 24.14 8.46 23.71s17.76.54 25.31-8.27 9.41-24.11 9.69-26.37c.52-4.28-16.16-26.15-33.64-11.71z"/><path class="cls-9" d="M231.8 141.18c15.95-7.34 23.83 9.5 23.36 13.41-.28 2.26-2.14 17.57-9.69 26.37s-15.53 7.84-25.31 8.27a7 7 0 0 1-2-.19s4.34-1.09 1.21-6c-2.57-4.08-2.41-4.79-1.05-8.06.87-2.1-3.14-2.44-2.78-3.4a56.43 56.43 0 0 1 3.41-5.13c1.43-2.17 2.35-6.43 2.4-8.94s9.32-15.81 10.45-16.33z"/><circle class="cls-12" cx="216.85" cy="158.25" r="1.33"/><circle class="cls-12" cx="230.38" cy="161.97" r="1.37"/><path class="cls-13" d="M215.46 177.89s5.22 2.51 6.89.88-.18 2.89-2.11 3-3.68-.46-4.78-3.88z"/><path class="cls-7" d="M233.11 132.67c8.5-.42 19 3.4 19.91 4.46a6.7 6.7 0 0 0 5.36 1.69c1.89-.34 1.45 2.34-.18 3.74s2.94 2.25 5.06 10.3-3.54 17.25-6.32 22.74c-6.46 12.77-14.89 13.17-14.45 10.71 1.29-7.32 7.56-16.82 5.54-16.81s0-15.51-6.59-19.15c0 0-19.67 2.38-26.27-1.8s-5.06-2.74-2-3.13 7.9-12.16 19.94-12.75z"/><path class="cls-17" d="M206.34 202.5c5.31-.69 11.74-2.13 13.74-5.14 0 0-5.18 11.53-2.08 14.63 2.42 2.41 11.57-1.39 26.3-12.58 0 0-.12 0 1.68 1s8.31 6.16 14.44 18 4.32 18.64 4.32 18.64l-80.14-17.11a18.74 18.74 0 0 1 1.06-2.6 26.72 26.72 0 0 1 20.68-14.84z"/><circle class="cls-26" cx="214.85" cy="158.54" r="7.2"/><circle class="cls-26" cx="232.03" cy="163.04" r="7.2"/><path class="cls-26" d="M248.28 168.7l-7-3.82-2.16-.3m-17.26-4.32s3-3 3.18 1.06"/><path class="cls-27" d="M229.79 209.94s-13 14.32-16.58 22.38c0 0-4.61.41-5.13-1.16 0 0 5.28-10.91 10-17.52a12 12 0 0 1 8.26-5.15c1.66-.18 3.1.08 3.45 1.45z"/><path class="cls-28" d="M243.23 197.22s-10.43 9.76-13.85 9.93c-5.24.26-10 4.74-10 4.74l9-2.27 5.25 8.53s15-10.69 16.48-11.28 1.47-.35.72-3.17-4.7-8.62-7.6-6.48z"/><path class="cls-27" d="M217.11 219.94s1.8-9.65-1.89-12.21a24.12 24.12 0 0 1 5.61 5.27c2.32 3.16.53.76.53.76z"/><ellipse class="cls-17" cx="215.9" cy="221.17" rx="1.07" ry="1.03" transform="rotate(-75.09 215.913 221.175)"/><ellipse class="cls-17" cx="212.99" cy="226.84" rx="1.07" ry="1.03" transform="rotate(-75.09 213.004 226.845)"/><path class="cls-28" d="M219.84 211.78a7.9 7.9 0 0 1-2.19-4.67c-.39-3 2.06-7.21 3-9.63.1-.23.41-.33-.11-.48s-2.49 1.4-5.54 7.33c-3.9 7.58-5.12 9.76-5.12 9.76l5.87-5.4z"/><path class="cls-9" d="M247.14 171.15s5.65-7.33 8.81-3.36-11 15.81-11.35 8.06 2.54-4.7 2.54-4.7z"/></g><path class="cls-14" d="M148.94 124.32h4v1.34h-.17a.74.74 0 0 0-.37.06.21.21 0 0 0-.1.19 1.11 1.11 0 0 0 .06.3l1.06 3 .92-2.35-.24-.65a.92.92 0 0 0-.26-.42.93.93 0 0 0-.46-.13v-1.34h3.81v1.34h-.31a.75.75 0 0 0-.36.07.25.25 0 0 0-.09.2 1.14 1.14 0 0 0 .09.37l.91 2.49.92-2.49a1.26 1.26 0 0 0 .09-.37.2.2 0 0 0-.11-.2.89.89 0 0 0-.45-.07h-.17v-1.34h3.4v1.34a2.06 2.06 0 0 0-.48 0 .56.56 0 0 0-.2.14 1.85 1.85 0 0 0-.24.46l-2 5h-2l-1.19-2.78-1.15 2.79h-2l-2-5a1.42 1.42 0 0 0-.26-.44.54.54 0 0 0-.19-.16 2.87 2.87 0 0 0-.48 0zm16.28-.17v5.15a1.37 1.37 0 0 0 0 .45.3.3 0 0 0 .16.13 2 2 0 0 0 .53 0h.41v1.35h-4.68v-1.35h.4a2.46 2.46 0 0 0 .5 0 .33.33 0 0 0 .17-.13.93.93 0 0 0 .05-.37v-3.32h-1.12v-1.31a8.16 8.16 0 0 0 1.14-.11 9.28 9.28 0 0 0 1-.22 6.69 6.69 0 0 0 .69-.28zm-1.23-3.1a1.39 1.39 0 0 1 1 .37 1.22 1.22 0 0 1 0 1.81 1.39 1.39 0 0 1-1 .37 1.38 1.38 0 0 1-1-.37 1.19 1.19 0 0 1-.41-.9 1.17 1.17 0 0 1 .42-.9 1.37 1.37 0 0 1 1-.38m6.7 0v6.27l1.45-1.14a1.91 1.91 0 0 0 .28-.23.14.14 0 0 0 0-.1c0-.06 0-.1-.1-.14a1.28 1.28 0 0 0-.44 0h-.28v-1.34h4.63v1.34a2.16 2.16 0 0 0-.69.07 5 5 0 0 0-.79.45l-1.47 1 2.09 2.24a1.84 1.84 0 0 0 .52.43 2.62 2.62 0 0 0 .79.08v1.35H172v-1.35h.26a1.06 1.06 0 0 0 .38 0c.06 0 .09-.08.09-.13a.88.88 0 0 0-.24-.39l-.87-1-1 .64v.38a1 1 0 0 0 0 .36.39.39 0 0 0 .16.15.76.76 0 0 0 .34 0h.27v1.35h-4.35v-1.35h.35a1.49 1.49 0 0 0 .54-.06.33.33 0 0 0 .18-.17 2.81 2.81 0 0 0 0-.61V123H167v-1.36a10 10 0 0 0 2.8-.57zm10.35 3.1v5.15a1.37 1.37 0 0 0 0 .45.3.3 0 0 0 .16.13 2 2 0 0 0 .53 0h.41v1.35h-4.68v-1.35h.4a2.46 2.46 0 0 0 .5 0 .33.33 0 0 0 .17-.13.93.93 0 0 0 0-.37v-3.32h-1.12v-1.31a8.46 8.46 0 0 0 1.15-.11 9.63 9.63 0 0 0 1-.22 6.69 6.69 0 0 0 .69-.28zm-1.23-3.1a1.39 1.39 0 0 1 1 .37 1.2 1.2 0 0 1 0 1.81 1.39 1.39 0 0 1-1 .37 1.38 1.38 0 0 1-1-.37 1.19 1.19 0 0 1-.41-.9 1.17 1.17 0 0 1 .42-.9 1.37 1.37 0 0 1 1-.38"/><path class="cls-29" d="M184.13 121.55h5.16v1.35h-.48a1.27 1.27 0 0 0-.53.07.43.43 0 0 0-.21.21 1.8 1.8 0 0 0-.06.59v1.69h3.85v-1.82a1.53 1.53 0 0 0 0-.45.37.37 0 0 0-.21-.23 2 2 0 0 0-.63-.06h-.4v-1.35h5.17v1.35h-.43a1.77 1.77 0 0 0-.58.06.41.41 0 0 0-.21.2 2.38 2.38 0 0 0-.05.61V129a1.64 1.64 0 0 0 .07.63.36.36 0 0 0 .22.2 2.3 2.3 0 0 0 .68.06h.3v1.35h-5.17v-1.35h.34a1.85 1.85 0 0 0 .64-.07.38.38 0 0 0 .24-.2 1.9 1.9 0 0 0 .06-.62v-2H188v2a2.27 2.27 0 0 0 .05.61.43.43 0 0 0 .23.23 2.31 2.31 0 0 0 .64 0h.36v1.35h-5.16v-1.35h.35a1.72 1.72 0 0 0 .61-.07.4.4 0 0 0 .24-.19 1.29 1.29 0 0 0 .07-.55v-5.28a1.74 1.74 0 0 0-.07-.64.4.4 0 0 0-.2-.22 1.27 1.27 0 0 0-.53-.07h-.47zm16.5 2.6a5.18 5.18 0 0 1 2.26.47 3.55 3.55 0 0 1 1.48 1.27 3.44 3.44 0 0 1 .52 1.88 3.39 3.39 0 0 1-1.15 2.65 4.48 4.48 0 0 1-3.08 1 4.54 4.54 0 0 1-3.12-1 3.32 3.32 0 0 1-1.13-2.64 3.4 3.4 0 0 1 .52-1.88 3.63 3.63 0 0 1 1.48-1.26 4.9 4.9 0 0 1 2.22-.48m0 1.53a1.55 1.55 0 0 0-.81.23 1.52 1.52 0 0 0-.59.7 2.85 2.85 0 0 0-.21 1.17 3 3 0 0 0 .21 1.21 1.42 1.42 0 0 0 1.35.94 1.5 1.5 0 0 0 1.15-.52 2.3 2.3 0 0 0 .47-1.61 2.4 2.4 0 0 0-.44-1.59 1.38 1.38 0 0 0-1.13-.53m4.8-1.37h4v1.34h-.17a.74.74 0 0 0-.37.06.21.21 0 0 0-.11.19 1.22 1.22 0 0 0 .07.3l1.06 3 .92-2.35-.24-.65a.92.92 0 0 0-.26-.42.93.93 0 0 0-.46-.13v-1.34h3.81v1.34h-.31a.75.75 0 0 0-.36.07.26.26 0 0 0-.1.2 1.14 1.14 0 0 0 .09.37l.92 2.49.92-2.49a1.26 1.26 0 0 0 .09-.37.22.22 0 0 0-.11-.2.89.89 0 0 0-.45-.07h-.18v-1.34h3.41v1.34a2.06 2.06 0 0 0-.48 0 .48.48 0 0 0-.2.14 1.85 1.85 0 0 0-.24.46l-2 5h-2l-1.12-2.79-1.15 2.79h-2l-2-5a1.41 1.41 0 0 0-.25-.44.49.49 0 0 0-.2-.16 2.71 2.71 0 0 0-.47 0z"/><path class="cls-14" d="M15.79 11.53a9.28 9.28 0 0 1-3 2.13l-.47.21a21.15 21.15 0 1 0 29.3 24.51A14.08 14.08 0 0 1 55.19 27.6c10.36 0 22.73 1.67 24.7 4.35l3.91-6.42s-44.29-38.86-68.01-14z"/><path class="cls-16" d="M95.34 143.06s14.86.87 19 .45 11.6 9.46 9.68 9.92-2.15-1.79-7.48-3.05-9.74-1.54-10.92 1.26-2.36 2.92.44 5.38 10.14 4 12.74 4.54 3 2.13-1.84 2.83-18.33-3-21.57-2.92-3.91-1.84-3.91-1.84z"/><path class="cls-30" d="M72.37 72.23s-29.16 1.88-33.57 38.88 37.1 51.66 56.54 50.36v-18.41s-18.16-2.24-24.54-10.37-10.6-30.27-4.66-37.28a41.83 41.83 0 0 1 13.65-10.35s-4.89-2.97-7.42-12.83z"/></svg>