<svg xmlns="http://www.w3.org/2000/svg" width="10.188" height="10.188" viewBox="0 0 10.188 10.188"><defs><style>.a{fill:#fff;}</style></defs><path class="a" d="M104.791,474l-1.664-1.663a.311.311,0,0,0-.441,0L95.618,479.4a.307.307,0,0,0-.071.115l0,.007-.832,2.5a.312.312,0,0,0,.076.318.309.309,0,0,0,.221.092.317.317,0,0,0,.1-.016l2.495-.831.007,0a.307.307,0,0,0,.115-.071l7.069-7.069A.312.312,0,0,0,104.791,474Zm-3.132.246,1.222,1.222-5.38,5.38-1.222-1.222Zm-6.16,7.382.475-1.424.949.949Zm7.823-6.6L102.1,473.8l.806-.807,1.223,1.223Z" transform="translate(-94.695 -472.244)"/></svg>