<svg xmlns="http://www.w3.org/2000/svg" width="62.117" height="62.117" viewBox="0 0 62.117 62.117"><defs><style>.a{fill:#fff;}</style></defs><g transform="translate(-90.25 -548.25)"><path class="a" d="M121.309,548.25a31.059,31.059,0,1,0,31.059,31.059A31.093,31.093,0,0,0,121.309,548.25Zm0,58.314a27.255,27.255,0,1,1,27.256-27.255A27.285,27.285,0,0,1,121.309,606.564Z" transform="translate(0)"/><path class="a" d="M128.689,555.889l-19.081,21.467L98.34,568.343a1.9,1.9,0,0,0-2.378,2.971l12.677,10.142a1.923,1.923,0,0,0,.36.2c.066.031.122.079.188.1a1.857,1.857,0,0,0,1.427-.061,2.29,2.29,0,0,0,.223-.162,1.816,1.816,0,0,0,.413-.3l20.283-22.819a1.9,1.9,0,0,0-2.845-2.525Z" transform="translate(7.677 10.748)"/></g></svg>