<svg xmlns="http://www.w3.org/2000/svg" width="18.526" height="13.795" viewBox="0 0 18.526 13.795"><path d="M107.748,239.582a.6.6,0,0,0-.033-.192.094.094,0,0,1-.009-.016c-.007-.018-.019-.033-.028-.051a.6.6,0,0,0-.085-.125.5.5,0,0,0-.05-.047.566.566,0,0,0-.119-.08.451.451,0,0,0-.059-.029.579.579,0,0,0-.208-.042H89.815a.583.583,0,0,0-.208.042.453.453,0,0,0-.059.029.591.591,0,0,0-.119.08.5.5,0,0,0-.05.047.566.566,0,0,0-.084.125.482.482,0,0,0-.029.051.094.094,0,0,1-.009.016.6.6,0,0,0-.033.192l0,.009v11.036a2.17,2.17,0,0,0,2.168,2.168h14.19a2.17,2.17,0,0,0,2.168-2.168V239.591Zm-2.229.6-6.452,5.351a.975.975,0,0,1-1.13.022l-6.482-5.373Zm.063,11.43H91.392a.986.986,0,0,1-.985-.985v-9.778l6.805,5.64a2.145,2.145,0,0,0,1.265.414,2.222,2.222,0,0,0,1.314-.437l6.776-5.617v9.778A.986.986,0,0,1,105.582,251.613Z" transform="translate(-89.224 -239)"/></svg>