<svg xmlns="http://www.w3.org/2000/svg" width="16.148" height="21" viewBox="0 0 16.148 21"><path d="M99.867,308a8.054,8.054,0,0,0-8.074,8.015c-.009,4.544,4.864,10.256,6.96,12.5a1.526,1.526,0,0,0,1.112.484h0a1.526,1.526,0,0,0,1.113-.487c2.093-2.252,6.96-7.978,6.96-12.5A8.054,8.054,0,0,0,99.867,308Zm.154,19.622a.205.205,0,0,1-.155.069.235.235,0,0,1-.156-.069c-1.552-1.662-6.616-7.414-6.608-11.606a6.765,6.765,0,0,1,13.53,0C106.632,320.184,101.572,325.953,100.021,327.622Z" transform="translate(-91.793 -308)"/><path d="M99.867,311.986a4.146,4.146,0,1,0,4.146,4.147A4.151,4.151,0,0,0,99.867,311.986Zm0,6.983a2.837,2.837,0,1,1,2.837-2.836A2.84,2.84,0,0,1,99.867,318.969Z" transform="translate(-91.793 -308)"/></svg>