<svg xmlns="http://www.w3.org/2000/svg" width="25.427" height="19.718" viewBox="0 0 25.427 19.718"><path d="M126.738,826.761a.83.83,0,0,0-.141-.088l-2.35-1.148-.4-2.785a1.8,1.8,0,0,0-1.8-1.626h-3.955V816.7a1.817,1.817,0,0,0-1.816-1.816H103.816A1.818,1.818,0,0,0,102,816.7v14.53a.777.777,0,0,0,.779.777h1.916a3.362,3.362,0,0,0,6.546,0h7.984a3.362,3.362,0,0,0,6.546,0h.879a.777.777,0,0,0,.777-.777v-3.051A1.827,1.827,0,0,0,126.738,826.761ZM103.556,816.7a.263.263,0,0,1,.26-.26H116.27a.262.262,0,0,1,.26.26v13.751h-5.289a3.362,3.362,0,0,0-6.546,0h-1.138Zm4.411,16.346a1.816,1.816,0,1,1,1.818-1.816A1.819,1.819,0,0,1,107.967,833.049Zm14.53,0a1.816,1.816,0,1,1,1.817-1.816A1.819,1.819,0,0,1,122.5,833.049Zm3.374-2.595h-.1a3.362,3.362,0,0,0-6.546,0h-1.138V822.67h3.955a.261.261,0,0,1,.256.256l.468,3.229a.776.776,0,0,0,.429.588l2.618,1.28a.258.258,0,0,1,.058.16Z" transform="translate(-102 -814.887)"/></svg>