<svg xmlns="http://www.w3.org/2000/svg" width="12.516" height="12.516" viewBox="0 0 12.516 12.516"><g transform="translate(-92.308 -430.728)"><path d="M102.908,432.261h-1.7a1.918,1.918,0,0,0-1.877-1.533H97.289a1.919,1.919,0,0,0-1.878,1.533H94.224a1.918,1.918,0,0,0-1.916,1.915.383.383,0,0,0,.766,0,1.151,1.151,0,0,1,1.149-1.149h8.684a1.151,1.151,0,0,1,1.149,1.149.383.383,0,0,0,.766,0A1.918,1.918,0,0,0,102.908,432.261Zm-6.7,0a1.151,1.151,0,0,1,1.084-.766h2.043a1.151,1.151,0,0,1,1.083.766Z"/><path d="M103.419,434.134a.383.383,0,0,0-.383.383v8.812H95.118v-8.812a.383.383,0,0,0-.766,0v9.2a.383.383,0,0,0,.383.383h8.684a.383.383,0,0,0,.383-.383v-9.2A.383.383,0,0,0,103.419,434.134Z" transform="translate(-0.511 -0.852)"/><path d="M97.843,442.692v-6.13a.383.383,0,1,0-.766,0v6.13a.383.383,0,1,0,.766,0Z" transform="translate(-0.193 -1.364)"/><path d="M101.249,442.692v-6.13a.383.383,0,1,0-.766,0v6.13a.383.383,0,1,0,.766,0Z" transform="translate(-1.045 -1.364)"/></g></svg>