<svg xmlns="http://www.w3.org/2000/svg" width="18.031" height="18.521" viewBox="0 0 18.031 18.521"><g transform="translate(-91.744 -122)"><path d="M103.979,130.876a1.238,1.238,0,0,0-1,.533,2.72,2.72,0,0,1-4.434,0,1.238,1.238,0,0,0-1-.533h0a5.8,5.8,0,0,0-5.795,5.795v2.356a1.5,1.5,0,0,0,1.493,1.494h15.045a1.5,1.5,0,0,0,1.493-1.494v-2.356A5.8,5.8,0,0,0,103.979,130.876Zm4.538,8.151a.236.236,0,0,1-.235.236H93.237a.236.236,0,0,1-.235-.236v-2.356a4.543,4.543,0,0,1,4.539-4.537l-.025,0a3.982,3.982,0,0,0,3.244,1.675,3.9,3.9,0,0,0,3.22-1.677,4.542,4.542,0,0,1,4.537,4.537Z"/><path d="M100.68,130.806a4.4,4.4,0,1,0-4.4-4.4A4.408,4.408,0,0,0,100.68,130.806Zm0-7.548a3.145,3.145,0,1,1-3.144,3.145A3.148,3.148,0,0,1,100.68,123.258Z"/></g></svg>